<?xml version="1.0" standalone="no"?>
<!DOCTYPE svg PUBLIC "-//W3C//DTD SVG 20010904//EN"
 "http://www.w3.org/TR/2001/REC-SVG-20010904/DTD/svg10.dtd">
<svg version="1.0" xmlns="http://www.w3.org/2000/svg"
 width="32.000000pt" height="32.000000pt" viewBox="0 0 32.000000 32.000000"
 preserveAspectRatio="xMidYMid meet">

<g transform="translate(0.000000,32.000000) scale(0.100000,-0.100000)"
fill="#000000" stroke="none">
<path d="M76 243 c-38 -31 -64 -59 -58 -61 8 -2 12 -32 12 -88 l0 -84 130 0
130 0 0 84 c0 56 4 86 12 88 14 5 -125 118 -144 117 -7 0 -44 -25 -82 -56z
m145 -69 c17 -8 29 -18 26 -20 -3 -3 -19 2 -36 10 -16 9 -39 16 -51 16 -12 0
-35 -7 -51 -16 -39 -20 -50 -11 -12 10 37 20 86 20 124 0z m-15 -30 c18 -14
18 -15 -6 -8 -14 4 -32 8 -40 8 -8 0 -26 -4 -40 -8 -24 -7 -24 -6 -6 8 11 9
32 16 46 16 14 0 35 -7 46 -16z m-22 -20 c28 -11 17 -19 -24 -19 -39 0 -52 8
-27 18 18 8 33 8 51 1z m-14 -39 c0 -8 -4 -15 -10 -15 -5 0 -10 7 -10 15 0 8
5 15 10 15 6 0 10 -7 10 -15z"/>
</g>
</svg>
